<svg xmlns="http://www.w3.org/2000/svg" viewBox="0 0 550 550"><g id="_x31_7679_-_Bench"><g id="XMLID_308_"><g id="XMLID_296_"><path d="m394.991 453.821h-366.784c-4.418 0-8-3.582-8-8v-39.867c0-4.418 3.582-8 8-8h366.785c4.418 0 8 3.582 8 8v39.867c-.001 4.418-3.583 8-8.001 8zm-358.784-16h350.785v-23.867h-350.785z"></path></g><g id="XMLID_307_"><path d="m91 375h-40c-4.418 0-8-3.582-8-8v-96c0-4.418 3.582-8 8-8h40c4.418 0 8 3.582 8 8s-3.582 8-8 8h-32v80h32c4.418 0 8 3.582 8 8s-3.582 8-8 8z"></path></g><g id="XMLID_299_"><path d="m371 311h-320c-4.418 0-8-3.582-8-8s3.582-8 8-8h320c4.418 0 8 3.582 8 8s-3.582 8-8 8z"></path></g><g id="XMLID_298_"><path d="m371 343h-320c-4.418 0-8-3.582-8-8s3.582-8 8-8h320c4.418 0 8 3.582 8 8s-3.582 8-8 8z"></path></g><g id="XMLID_301_"><g id="XMLID_300_"><path d="m103.956 509.637h-31.894c-4.418 0-8-3.582-8-8v-55.815c0-4.418 3.582-8 8-8h31.894c4.418 0 8 3.582 8 8v55.815c0 4.418-3.582 8-8 8zm-23.894-16h15.894v-39.815h-15.894z"></path></g><g id="XMLID_302_"><path d="m351.137 509.637h-31.895c-4.418 0-8-3.582-8-8v-55.815c0-4.418 3.582-8 8-8h31.895c4.418 0 8 3.582 8 8v55.815c0 4.418-3.582 8-8 8zm-23.895-16h15.895v-39.815h-15.895z"></path></g></g><g id="XMLID_306_"><path d="m371 375h-280c-4.418 0-8-3.582-8-8s3.582-8 8-8h272v-80h-272c-4.418 0-8-3.582-8-8s3.582-8 8-8h280c4.418 0 8 3.582 8 8v96c0 4.418-3.582 8-8 8z"></path></g><g id="XMLID_311_"><path d="m123 279h-32c-4.418 0-8-3.582-8-8v-32c0-4.418 3.582-8 8-8h32c4.418 0 8 3.582 8 8v32c0 4.418-3.582 8-8 8zm-24-16h16v-16h-16z"></path></g><g id="XMLID_406_"><path d="m123 414c-4.418 0-8-3.582-8-8v-31h-16v31c0 4.418-3.582 8-8 8s-8-3.582-8-8v-39c0-4.418 3.582-8 8-8h32c4.418 0 8 3.582 8 8v39c0 4.418-3.582 8-8 8z"></path></g><g id="XMLID_304_"><path d="m331 279h-32c-4.418 0-8-3.582-8-8v-32c0-4.418 3.582-8 8-8h32c4.418 0 8 3.582 8 8v32c0 4.418-3.582 8-8 8zm-24-16h16v-16h-16z"></path></g><g id="XMLID_491_"><path d="m331 414c-4.418 0-8-3.582-8-8v-31h-16v31c0 4.418-3.582 8-8 8s-8-3.582-8-8v-39c0-4.418 3.582-8 8-8h32c4.418 0 8 3.582 8 8v39c0 4.418-3.582 8-8 8z"></path></g><g id="XMLID_305_"><path d="m522 511h-495c-4.418 0-8-3.582-8-8s3.582-8 8-8h495c4.418 0 8 3.582 8 8s-3.582 8-8 8z"></path></g><g id="XMLID_314_"><path d="m465.638 254.599c-10.631 0-20.995-2.919-30.28-8.487-9.286 5.568-19.65 8.487-30.281 8.487-35.385 0-64.173-32.204-64.173-71.789 0-20.789 7.835-40.13 21.638-53.764-.38-3.354-.572-6.71-.572-10.025 0-43.981 31.938-79.762 71.194-79.762s71.194 35.781 71.194 79.762c0 2.083-.078 4.204-.232 6.34 16.164 13.533 25.686 34.654 25.686 57.449-.001 39.585-28.79 71.789-64.174 71.789zm-30.281-26.074c1.653 0 3.307.511 4.711 1.534 7.669 5.587 16.511 8.541 25.569 8.541 26.563 0 48.173-25.027 48.173-55.789 0-19.361-8.507-37.066-22.756-47.36-2.362-1.707-3.61-4.563-3.257-7.456.371-3.035.56-6.054.56-8.973 0-35.159-24.76-63.762-55.194-63.762s-55.194 28.604-55.194 63.762c0 3.884.323 7.848.961 11.782.443 2.737-.563 5.508-2.657 7.325-12.31 10.669-19.369 26.955-19.369 44.682 0 30.762 21.61 55.789 48.173 55.789 9.059 0 17.9-2.953 25.571-8.541 1.403-1.023 3.056-1.534 4.709-1.534z"></path></g><g id="XMLID_317_"><path d="m421 511c-4.418 0-8-3.582-8-8v-259c0-4.418 3.582-8 8-8s8 3.582 8 8v259c0 4.418-3.582 8-8 8z"></path></g><g id="XMLID_316_"><path d="m453 511c-4.418 0-8-3.582-8-8v-258c0-4.418 3.582-8 8-8s8 3.582 8 8v258c0 4.418-3.582 8-8 8z"></path></g><g id="XMLID_297_"><path d="m68.075 134.996c-26.395 0-47.868-21.474-47.868-47.868s21.473-47.868 47.868-47.868 47.868 21.473 47.868 47.868-21.474 47.868-47.868 47.868zm0-79.736c-17.572 0-31.868 14.296-31.868 31.868s14.296 31.868 31.868 31.868 31.868-14.296 31.868-31.868c-.001-17.572-14.297-31.868-31.868-31.868z"></path></g></g></g><g id="Layer_1"></g></svg>