<svg xmlns="http://www.w3.org/2000/svg" width="512" height="512" viewBox="0 0 512 512" fill="none"><mask id="mask0_2046_490" style="mask-type:alpha" maskUnits="userSpaceOnUse" x="0" y="0" width="512" height="512"><rect width="512" height="512" fill="#D9D9D9"></rect></mask><g mask="url(#mask0_2046_490)"><path d="M255.997 426.666C236.086 426.666 217.331 423.555 199.731 417.333C182.131 411.111 166.042 402.311 151.464 390.933L121.597 420.266C117.686 424.177 112.708 426.133 106.664 426.133C100.619 426.133 95.6417 424.177 91.7306 420.266C87.8195 416.355 85.8639 411.377 85.8639 405.333C85.8639 399.289 87.8195 394.311 91.7306 390.4L121.064 361.066C109.686 346.489 100.886 330.311 94.6639 312.533C88.4417 294.755 85.3306 275.911 85.3306 256C85.3306 208.355 101.864 168 134.931 134.933C167.997 101.866 208.353 85.3331 255.997 85.3331H426.664V256C426.664 303.644 410.131 344 377.064 377.066C343.997 410.133 303.642 426.666 255.997 426.666ZM255.997 384C291.553 384 321.775 371.555 346.664 346.666C371.553 321.777 383.997 291.555 383.997 256V128H255.997C220.442 128 190.219 140.444 165.331 165.333C140.442 190.222 127.997 220.444 127.997 256C127.997 269.866 130.131 283.111 134.397 295.733C138.664 308.355 144.531 319.822 151.997 330.133L262.397 219.733C266.308 215.822 271.286 213.866 277.331 213.866C283.375 213.866 288.353 215.822 292.264 219.733C296.531 224 298.664 229.066 298.664 234.933C298.664 240.8 296.531 245.866 292.264 250.133L181.864 360.533C192.175 368 203.642 373.777 216.264 377.866C228.886 381.955 242.131 384 255.997 384Z" fill="#183030"></path></g></svg>