<svg xmlns="http://www.w3.org/2000/svg" fill="none" height="100" viewBox="0 0 100 100" width="100"><g clip-rule="evenodd" fill="rgb(0,0,0)" fill-rule="evenodd"><path d="m50 37c4.4183 0 8-3.5817 8-8s-3.5817-8-8-8-8 3.5817-8 8 3.5817 8 8 8zm0-4c2.2091 0 4-1.7909 4-4s-1.7909-4-4-4-4 1.7909-4 4 1.7909 4 4 4z"></path><path d="m67.8654 60h5.6346c2.4853 0 4.5 2.0147 4.5 4.5s-2.0147 4.5-4.5 4.5h-.9138l-2.1222 20.5145c-.2636 2.5486-2.4112 4.4855-4.9734 4.4855h-30.5578c-2.5297 0-4.6608-1.8894-4.9639-4.4009l-2.4861-20.5991h-.9828c-2.4853 0-4.5-2.0147-4.5-4.5s2.0147-4.5 4.5-4.5h5.6346c-1.224-2.425-1.9689-5.1331-2.11-8-.0474-.9612-.0391-1.926-.0309-2.8896.0031-.3704.0063-.7406.0063-1.1104.2233 0 .4466-.0009.67-.0019 1.1111-.0046 2.2233-.0092 3.33.1007 5.718.5677 10.7276 3.5437 14 7.8993v-4.2387c-2.3548-.5777-4.3178-2.1527-5.4159-4.2516-.6524-1.2472-.948-2.6202-.948-4.0217-1.2149.7014-2.5498 1.1313-3.9569 1.1899-3.0108.1254-5.9872-1.3855-7.5983-4.176s-1.4314-6.1234.1825-8.6681c.7543-1.1894 1.794-2.1305 3.0089-2.8319-1.2138-.7008-2.255-1.6433-3.0088-2.832-1.6139-2.5446-1.7936-5.8776-.1825-8.668 1.6111-2.7905 4.5874-4.3014 7.5982-4.176 1.4064.0586 2.7431.4891 3.9569 1.1898 0-1.4015.2956-2.7744.9481-4.0217 1.3968-2.66999 4.1934-4.4921 7.4155-4.4921s6.0187 1.82205 7.4155 4.492c.6525 1.2472.9482 2.6201.9482 4.0216 1.2137-.7007 2.5505-1.1311 3.9569-1.1896 3.0106-.1252 5.9867 1.3856 7.5978 4.176 1.611 2.7904 1.4313 6.1233-.1825 8.668-.7539 1.1887-1.795 2.1312-3.0088 2.832 1.2149.7014 2.2546 1.6425 3.0088 2.8319 1.614 2.5447 1.7937 5.8776.1826 8.6681-1.6111 2.7904-4.5873 4.3013-7.5979 4.176-1.4071-.0586-2.7421-.4883-3.9569-1.1897 0 1.4015-.2957 2.7744-.9482 4.0216-1.0979 2.0988-3.0607 3.6736-5.4152 4.2514v4.2388c3.2724-4.3556 8.282-7.3316 14-7.8993 1.1067-.1099 2.2186-.1053 3.3297-.1007.2234.001.447.0019.6703.0019 0 .3698.0032.74.0063 1.1104.0082.9635.0165 1.9284-.0309 2.8896-.1411 2.8669-.886 5.575-2.11 8zm-31.096 0h9.0901c-2.4438-4.2245-6.7636-7.228-11.8203-7.8713.2025 2.9063 1.1812 5.5987 2.7302 7.8713zm17.3711 0c2.4438-4.2245 6.7636-7.228 11.8203-7.8713-.2025 2.9063-1.1812 5.5987-2.7302 7.8713zm6.3526-42.0972-6.1297 3.539v-7.0782c0-2.4099-1.9537-4.3636-4.3637-4.3636-2.4099 0-4.3636 1.9537-4.3636 4.3636v7.0784l-6.1302-3.5392c-2.0871-1.205-4.7558-.4899-5.9608 1.5972s-.4899 4.7558 1.5972 5.9608l6.13 3.5392-6.1301 3.5392c-2.0871 1.205-2.8022 3.8737-1.5972 5.9608s3.8737 2.8022 5.9608 1.5972l6.1303-3.5393v7.0785c0 2.4099 1.9537 4.3636 4.3636 4.3636 2.41 0 4.3637-1.9537 4.3637-4.3636v-7.0784l6.1299 3.5392c2.0871 1.205 4.7558.4899 5.9608-1.5972s.4899-4.7559-1.5972-5.9608l-6.13-3.5392 6.1299-3.5392c2.0871-1.2049 2.8021-3.8737 1.5972-5.9608-1.205-2.0871-3.8738-2.8022-5.9609-1.5972zm13.5069 46.5972c0-.2761-.2239-.5-.5-.5h-47c-.2761 0-.5.2239-.5.5s.2239.5.5.5h47c.2761 0 .5-.2239.5-.5zm-42.4882 4.5h37.0531l-2.0797 20.1029c-.0527.5097-.4822.8971-.9946.8971h-30.5578c-.5059 0-.9321-.3779-.9928-.8802z"></path></g></svg>