<svg xmlns="http://www.w3.org/2000/svg" id="Layer_1" height="512" viewBox="0 0 68 68" width="512"><g><path d="m12.7 6.5c0 3 2.5 5.5 5.5 5.5s5.5-2.5 5.5-5.5c0-.2 0-.3 0-.5h2.6c.6 0 1-.4 1-1s-.4-1-1-1h-3.2c-.9-1.8-2.8-3-4.9-3-3.1 0-5.5 2.5-5.5 5.5zm9 0c0 1.9-1.6 3.5-3.5 3.5-2 0-3.7-1.7-3.4-3.9h6.9c-.1.1 0 .2 0 .4zm-1.1-2.5h-4.9c.6-.6 1.5-1 2.5-1 .9 0 1.8.4 2.4 1z"></path><path d="m66.2 57.8-5-5c-.2-.2-.4-.3-.7-.3h-6.1v-2.2h2.3c.6 0 1-.4 1-1 0-2.8-2.3-5-5-5h-4.8c-2.8 0-5 2.3-5 5 0 .6.4 1 1 1h2.3v2.2h-4.7l-4.2-14.7c-.1-.3-.3-.5-.5-.6l-1.6-.9c.1-1.2-.6-2.2-1.6-2.7l-9.6-4.9v-7.5c0-3.7-3-6.7-6.7-6.7s-6.7 3-6.7 6.7c0 15.7-.2 16 .4 17.7l2 9.8-10.2 8.2c-1.4 1.1-1.7 3.3-.6 4.7l3.1 4c1.2 1.5 3.3 1.7 4.7.6 1.5-1.2 1.7-3.3.6-4.7l-1.1-1.4 3.3-2.6-.7 4.9c-.1 1 .2 1.9.8 2.7.6.7 1.6 1.2 2.5 1.2h5.2c1.9 0 3.4-1.5 3.4-3.4s-1.5-3.4-3.4-3.4h-1.3c1.1-7.7 1.1-7.4 1-8l4.7-3.8c2.5-2 .8-4.5-.5-7.7-.4-.9-.6-2-.6-3.3v-1.5l6.9 3.5c1.1.6 2.5.3 3.4-.6l1.1.6 3.9 13.7h-2.5c-1.6 0-2.9 1.3-2.9 2.9v4.5c0 1.6 1.3 2.9 2.9 2.9h.4c.5 2.4 2.6 4.2 5.1 4.2s4.6-1.8 5.1-4.2h5.7c.5 2.4 2.6 4.2 5.1 4.2s4.6-1.8 5.1-4.2h1c1.3 0 2.3-1 2.3-2.3v-2c0-.2-.1-.4-.3-.6zm-52.4-15.4c1 .7 2.3 1 3.6 1 .4 0 .9 0 1.3-.1l.3.7-4.2 3.3zm3.8 18.8c.2.2.5.3.8.3h2.5c.8 0 1.4.6 1.4 1.4s-.6 1.4-1.4 1.4h-5.2c-.4 0-.8-.2-1-.5-.3-.3-.4-.7-.3-1.1l1-7 3.1-2.5-1 7.2c-.2.3-.1.6.1.8zm14.3-24.2-10.5-5.3c-.1-.1-.3-.2-.4-.3l-4.5-7.2c-.3-.5-.9-.6-1.4-.3s-.6.9-.3 1.4l4.5 7.2c.3.5.7.8 1.2 1.1l1.6.8v2.6c0 1.6.2 2.9.7 4.1 1.5 3.7 2.2 4.5 1.1 5.3-2 1.6-14.8 11.8-16.4 13-.4.3-.5 1-.2 1.4l1.7 2.2c.5.6.4 1.5-.3 1.9-.6.4-1.5.3-1.9-.3l-3.1-4c-.3-.8-.2-1.6.3-2.1 18-14.3 17.5-13.5 17.1-14.5l-.9-2.2c-.2-.5-.8-.7-1.3-.6-.5.2-1 .3-1.6.3-2 0-3.8-1.3-4.4-3.1-.4-2.2-.3 1-.3-17.1 0-2.6 2.1-4.7 4.7-4.7s4.7 2.1 4.7 4.7v4.5l-2.2-3.6c-.3-.5-.9-.6-1.4-.3s-.6.9-.3 1.4l4.2 6.8c.1.2.2.3.4.4l10 5.1c.4.2.6.8.4 1.2-.2.2-.7.4-1.2.2zm16 9.3h4.8c1.3 0 2.4.8 2.8 2h-2.1-6.2-2.2c.4-1.2 1.6-2 2.9-2zm.3 4h4.2v2.2h-4.2zm-5.8 14.7c-1.8 0-3.2-1.4-3.2-3.2s1.4-3.2 3.2-3.2 3.2 1.4 3.2 3.2-1.4 3.2-3.2 3.2zm15.7 0c-1.8 0-3.2-1.4-3.2-3.2s1.4-3.2 3.2-3.2 3.2 1.4 3.2 3.2-1.4 3.2-3.2 3.2zm6.4-4.6c0 .2-.1.3-.3.3h-1c-.5-2.4-2.6-4.1-5.1-4.1s-4.6 1.8-5.1 4.1h-5.5c-.5-2.4-2.6-4.1-5.1-4.1s-4.6 1.8-5.1 4.1h-.4c-.5 0-.9-.4-.9-.9v-4.5c0-.5.4-.9.9-.9h10.2 6.2 6.7l4.4 4.4v1.6z"></path></g></svg>