<svg xmlns="http://www.w3.org/2000/svg" xmlns:xlink="http://www.w3.org/1999/xlink" id="Capa_1" x="0px" y="0px" viewBox="0 0 512 512" style="enable-background:new 0 0 512 512;" xml:space="preserve" width="512" height="512"><g>	<g>		<g>							<line style="fill:none;stroke:#000000;stroke-width:30;stroke-linecap:round;stroke-linejoin:round;stroke-miterlimit:10;" x1="255.983" y1="135.443" x2="255.983" y2="330.764"></line>			<path style="fill:none;stroke:#000000;stroke-width:30;stroke-linecap:round;stroke-linejoin:round;stroke-miterlimit:10;" d="&#10;&#9;&#9;&#9;&#9;M255.983,135.443c-66.472,0-120.359-53.924-120.359-120.443C202.096,15,255.983,68.924,255.983,135.443"></path>			<path style="fill:none;stroke:#000000;stroke-width:30;stroke-linecap:round;stroke-linejoin:round;stroke-miterlimit:10;" d="&#10;&#9;&#9;&#9;&#9;M255.983,135.443c66.472,0,120.359-53.924,120.359-120.443C309.869,15,255.983,68.924,255.983,135.443"></path>		</g>	</g>	<g>		<path style="fill:none;stroke:#000000;stroke-width:30;stroke-linecap:round;stroke-linejoin:round;stroke-miterlimit:10;" d="&#10;&#9;&#9;&#9;M452.928,159.633l-91.049,116.413c-11.749,14.849-13.133,34.83-5.454,52.203c18.659,3.496,37.777-2.434,49.526-17.283L497,194.553&#10;&#9;&#9;&#9;L452.928,159.633z"></path>		<path style="fill:none;stroke:#000000;stroke-width:30;stroke-linecap:round;stroke-linejoin:round;stroke-miterlimit:10;" d="&#10;&#9;&#9;&#9;M419.029,402.739c13.271-9.428,21.645-18.087,31.937-31.095l20.013-25.848l-56.981-45.12"></path>		<path style="fill:none;stroke:#000000;stroke-width:30;stroke-linecap:round;stroke-linejoin:round;stroke-miterlimit:10;" d="&#10;&#9;&#9;&#9;M369.906,265.739l-59.034-46.804l-19.024,24.597c-20.06,25.352-32.29,55.419-36.364,87.167"></path>	</g>	<path style="fill:none;stroke:#000000;stroke-width:30;stroke-linecap:round;stroke-linejoin:round;stroke-miterlimit:10;" d="&#10;&#9;&#9;M338.031,400.937c-6.212-39.755-40.577-70.173-82.048-70.173s-75.837,30.418-82.048,70.173h-62.939&#10;&#9;&#9;C57.979,400.937,15,443.946,15,497v0h481.435v0c0-53.054-42.979-96.062-95.995-96.062H338.031z"></path></g></svg>