<svg xmlns="http://www.w3.org/2000/svg" width="201" height="32" viewBox="0 0 201 32" fill="none"><mask id="mask0_2038_490" style="mask-type:alpha" maskUnits="userSpaceOnUse" x="0" y="0" width="32" height="32"><rect width="32" height="32" fill="#D9D9D9"></rect></mask><g mask="url(#mask0_2038_490)"><path d="M15.9999 26.6667C14.7555 26.6667 13.5833 26.4722 12.4833 26.0833C11.3833 25.6945 10.3777 25.1445 9.46659 24.4333L7.59992 26.2667C7.35547 26.5111 7.04436 26.6333 6.66659 26.6333C6.28881 26.6333 5.9777 26.5111 5.73325 26.2667C5.48881 26.0222 5.36659 25.7111 5.36659 25.3333C5.36659 24.9556 5.48881 24.6445 5.73325 24.4L7.56659 22.5667C6.85547 21.6556 6.30547 20.6445 5.91659 19.5333C5.5277 18.4222 5.33325 17.2445 5.33325 16C5.33325 13.0222 6.36659 10.5 8.43325 8.43334C10.4999 6.36668 13.0221 5.33334 15.9999 5.33334H26.6666V16C26.6666 18.9778 25.6333 21.5 23.5666 23.5667C21.4999 25.6333 18.9777 26.6667 15.9999 26.6667ZM15.9999 24C18.2221 24 20.111 23.2222 21.6666 21.6667C23.2221 20.1111 23.9999 18.2222 23.9999 16V8.00001H15.9999C13.7777 8.00001 11.8888 8.77779 10.3333 10.3333C8.7777 11.8889 7.99992 13.7778 7.99992 16C7.99992 16.8667 8.13325 17.6945 8.39992 18.4833C8.66659 19.2722 9.03325 19.9889 9.49992 20.6333L16.3999 13.7333C16.6444 13.4889 16.9555 13.3667 17.3333 13.3667C17.711 13.3667 18.0221 13.4889 18.2666 13.7333C18.5333 14 18.6666 14.3167 18.6666 14.6833C18.6666 15.05 18.5333 15.3667 18.2666 15.6333L11.3666 22.5333C12.011 23 12.7277 23.3611 13.5166 23.6167C14.3055 23.8722 15.1333 24 15.9999 24Z" fill="#183030"></path></g><path d="M39.56 23V9.8H42.1V23H39.56ZM41.2 23V20.92H49.42V23H41.2ZM41.2 17.26V15.34H48.44V17.26H41.2ZM41.2 11.88V9.8H49.38V11.88H41.2ZM54.008 23.26C53.4346 23.26 52.9213 23.1533 52.468 22.94C52.0146 22.7133 51.6546 22.38 51.388 21.94C51.1346 21.5 51.008 20.9533 51.008 20.3C51.008 19.7533 51.108 19.2867 51.308 18.9C51.5213 18.5133 51.8346 18.2 52.248 17.96C52.6613 17.7067 53.1746 17.5 53.788 17.34C54.4013 17.1667 55.1213 17.02 55.948 16.9C56.4013 16.8333 56.768 16.7667 57.048 16.7C57.3413 16.6333 57.5546 16.5333 57.688 16.4C57.8213 16.2533 57.888 16.04 57.888 15.76C57.888 15.3467 57.7413 14.9933 57.448 14.7C57.168 14.3933 56.708 14.24 56.068 14.24C55.6813 14.24 55.308 14.3067 54.948 14.44C54.6013 14.5733 54.3013 14.7867 54.048 15.08C53.7946 15.36 53.6213 15.7333 53.528 16.2L51.268 15.5C51.4146 14.9667 51.628 14.5067 51.908 14.12C52.188 13.72 52.5346 13.38 52.948 13.1C53.3613 12.82 53.8346 12.6133 54.368 12.48C54.9013 12.3467 55.488 12.28 56.128 12.28C57.1013 12.28 57.9013 12.44 58.528 12.76C59.1546 13.0667 59.6213 13.5533 59.928 14.22C60.2346 14.8733 60.388 15.72 60.388 16.76V18.72C60.388 19.1733 60.3946 19.6467 60.408 20.14C60.4346 20.62 60.4613 21.1067 60.488 21.6C60.528 22.08 60.5746 22.5467 60.628 23H58.368C58.3146 22.6267 58.268 22.2267 58.228 21.8C58.188 21.3733 58.1546 20.94 58.128 20.5H57.808C57.6213 21.0067 57.3546 21.4733 57.008 21.9C56.6613 22.3133 56.2346 22.6467 55.728 22.9C55.2346 23.14 54.6613 23.26 54.008 23.26ZM55.008 21.4C55.2746 21.4 55.5413 21.3533 55.808 21.26C56.088 21.1667 56.3613 21.0267 56.628 20.84C56.8946 20.6533 57.1413 20.4267 57.368 20.16C57.5946 19.88 57.788 19.5533 57.948 19.18L57.908 17.4L58.388 17.48C58.1613 17.6667 57.8813 17.8133 57.548 17.92C57.2146 18.0267 56.8613 18.1067 56.488 18.16C56.128 18.2133 55.7613 18.28 55.388 18.36C55.028 18.4267 54.7013 18.52 54.408 18.64C54.1146 18.7467 53.8813 18.9067 53.708 19.12C53.5346 19.32 53.448 19.6 53.448 19.96C53.448 20.4133 53.5946 20.7667 53.888 21.02C54.1813 21.2733 54.5546 21.4 55.008 21.4ZM63.1114 23V17.76V12.54H65.2314L65.1914 16.14H65.5514C65.6714 15.2867 65.8581 14.58 66.1114 14.02C66.3647 13.4467 66.7181 13.02 67.1714 12.74C67.6247 12.4467 68.1847 12.3 68.8514 12.3C68.9847 12.3 69.1247 12.3067 69.2714 12.32C69.4314 12.3333 69.6047 12.3667 69.7914 12.42L69.6914 15.08C69.4781 15 69.2581 14.9467 69.0314 14.92C68.8181 14.88 68.6181 14.86 68.4314 14.86C67.9114 14.86 67.4581 14.9933 67.0714 15.26C66.6981 15.5267 66.3914 15.9067 66.1514 16.4C65.9247 16.88 65.7514 17.4533 65.6314 18.12V23H63.1114ZM75.6386 23.24C74.5319 23.24 73.7186 22.9467 73.1986 22.36C72.6786 21.76 72.4186 20.8333 72.4186 19.58V14.56H70.8786L70.9186 12.56H71.9386C72.3253 12.56 72.6119 12.5 72.7986 12.38C72.9853 12.26 73.0986 12.0467 73.1386 11.74L73.3786 10.22H74.8386V12.54H77.5986V14.64H74.8386V19.48C74.8386 19.9733 74.9519 20.3333 75.1786 20.56C75.4186 20.7867 75.7719 20.9 76.2386 20.9C76.4919 20.9 76.7386 20.8733 76.9786 20.82C77.2319 20.7533 77.4653 20.6467 77.6786 20.5V22.9C77.2653 23.0333 76.8853 23.12 76.5386 23.16C76.2053 23.2133 75.9053 23.24 75.6386 23.24ZM79.752 23V16.5V8.8H82.292V12.06C82.292 12.34 82.2787 12.6267 82.252 12.92C82.2387 13.2133 82.212 13.5133 82.172 13.82C82.132 14.1267 82.0854 14.4333 82.032 14.74C81.992 15.0467 81.9454 15.3533 81.892 15.66H82.312C82.4987 14.94 82.7387 14.3333 83.032 13.84C83.3254 13.3333 83.6987 12.9467 84.152 12.68C84.6187 12.4133 85.1854 12.28 85.852 12.28C87.0654 12.28 87.972 12.7067 88.572 13.56C89.172 14.4 89.472 15.68 89.472 17.4V23H86.932V17.76C86.932 16.6133 86.7587 15.7667 86.412 15.22C86.0787 14.6733 85.572 14.4 84.892 14.4C84.332 14.4 83.8654 14.5733 83.492 14.92C83.1187 15.2533 82.832 15.7 82.632 16.26C82.432 16.82 82.312 17.4533 82.272 18.16V23H79.752ZM92.1348 23V8.8H94.6148V23H92.1348ZM101.23 26.58C100.696 26.58 100.156 26.5267 99.6097 26.42C99.063 26.3133 98.5497 26.1467 98.0697 25.92C97.603 25.7067 97.2097 25.4267 96.8897 25.08L97.7497 23C98.1364 23.44 98.6364 23.7733 99.2497 24C99.863 24.2267 100.483 24.34 101.11 24.34C101.843 24.34 102.45 24.1867 102.93 23.88C103.41 23.5867 103.776 23.1267 104.03 22.5C104.283 21.8733 104.423 21.0933 104.45 20.16L104.59 18.26H104.17C104.036 19.1667 103.816 19.9067 103.51 20.48C103.203 21.04 102.816 21.4533 102.35 21.72C101.896 21.9733 101.363 22.1 100.75 22.1C99.9897 22.1 99.3497 21.9067 98.8297 21.52C98.3097 21.1333 97.9164 20.56 97.6497 19.8C97.3964 19.04 97.2697 18.1 97.2697 16.98V12.54H99.8097V16.4C99.8097 17.6533 99.963 18.5667 100.27 19.14C100.576 19.7 101.043 19.98 101.67 19.98C102.003 19.98 102.31 19.8933 102.59 19.72C102.87 19.5333 103.103 19.2733 103.29 18.94C103.49 18.5933 103.643 18.1667 103.75 17.66C103.87 17.1533 103.936 16.5733 103.95 15.92V12.54H106.49V20.26C106.49 21.1 106.416 21.86 106.27 22.54C106.136 23.2067 105.93 23.7867 105.65 24.28C105.37 24.7867 105.016 25.2133 104.59 25.56C104.176 25.9067 103.69 26.16 103.13 26.32C102.57 26.4933 101.936 26.58 101.23 26.58ZM114.189 23V9.8H116.729V23H114.189ZM115.829 23V20.92H124.049V23H115.829ZM115.829 17.26V15.34H123.069V17.26H115.829ZM115.829 11.88V9.8H124.009V11.88H115.829ZM126.256 23V8.8H128.736V23H126.256ZM136.288 23.26C135.448 23.26 134.695 23.14 134.028 22.9C133.375 22.66 132.822 22.3133 132.368 21.86C131.915 21.3933 131.568 20.8333 131.328 20.18C131.088 19.5267 130.968 18.7867 130.968 17.96C130.968 17.1333 131.082 16.3733 131.308 15.68C131.548 14.9867 131.888 14.3867 132.328 13.88C132.768 13.3733 133.302 12.98 133.928 12.7C134.568 12.42 135.295 12.28 136.108 12.28C136.868 12.28 137.548 12.4067 138.148 12.66C138.748 12.9133 139.255 13.2933 139.668 13.8C140.082 14.2933 140.388 14.9133 140.588 15.66C140.788 16.3933 140.855 17.2467 140.788 18.22L132.608 18.28V16.82L139.328 16.76L138.448 17.58C138.528 16.82 138.468 16.2 138.268 15.72C138.068 15.2267 137.782 14.8667 137.408 14.64C137.035 14.4 136.608 14.28 136.128 14.28C135.582 14.28 135.102 14.4267 134.688 14.72C134.275 15 133.955 15.4133 133.728 15.96C133.515 16.4933 133.408 17.1467 133.408 17.92C133.408 19.08 133.662 19.9467 134.168 20.52C134.688 21.0933 135.395 21.38 136.288 21.38C136.688 21.38 137.022 21.3333 137.288 21.24C137.568 21.1333 137.802 21 137.988 20.84C138.175 20.6667 138.322 20.4733 138.428 20.26C138.548 20.0467 138.642 19.82 138.708 19.58L140.908 20.08C140.802 20.5733 140.628 21.0133 140.388 21.4C140.148 21.7867 139.835 22.12 139.448 22.4C139.075 22.68 138.628 22.8933 138.108 23.04C137.588 23.1867 136.982 23.26 136.288 23.26ZM147.152 26.6C146.019 26.6 145.085 26.5133 144.352 26.34C143.632 26.1667 143.099 25.9067 142.752 25.56C142.405 25.2133 142.232 24.7867 142.232 24.28C142.232 23.6667 142.472 23.1667 142.952 22.78C143.445 22.38 144.172 22.1333 145.132 22.04V21.64C144.412 21.6533 143.865 21.58 143.492 21.42C143.119 21.2467 142.932 20.9733 142.932 20.6C142.932 20.24 143.112 19.92 143.472 19.64C143.845 19.36 144.459 19.1267 145.312 18.94V18.54C144.499 18.5 143.865 18.2467 143.412 17.78C142.959 17.3 142.732 16.68 142.732 15.92C142.732 15.24 142.919 14.64 143.292 14.12C143.665 13.6 144.212 13.1933 144.932 12.9C145.665 12.5933 146.552 12.44 147.592 12.44H152.772V14.44L149.492 13.96V14.4C150.319 14.5333 150.925 14.7667 151.312 15.1C151.712 15.4333 151.912 15.8867 151.912 16.46C151.912 17.0067 151.739 17.4933 151.392 17.92C151.045 18.3333 150.539 18.66 149.872 18.9C149.219 19.1267 148.425 19.24 147.492 19.24C147.319 19.24 147.132 19.2333 146.932 19.22C146.732 19.2067 146.419 19.1733 145.992 19.12C145.712 19.32 145.485 19.5 145.312 19.66C145.139 19.8067 145.052 19.9467 145.052 20.08C145.052 20.1867 145.119 20.28 145.252 20.36C145.385 20.4267 145.559 20.4733 145.772 20.5C145.985 20.5267 146.192 20.54 146.392 20.54H149.172C149.439 20.54 149.779 20.56 150.192 20.6C150.619 20.64 151.039 20.7467 151.452 20.92C151.879 21.0933 152.232 21.3667 152.512 21.74C152.805 22.1133 152.952 22.64 152.952 23.32C152.952 24.08 152.732 24.7 152.292 25.18C151.865 25.6733 151.219 26.0333 150.352 26.26C149.499 26.4867 148.432 26.6 147.152 26.6ZM147.372 24.56C148.199 24.56 148.859 24.5133 149.352 24.42C149.845 24.3267 150.199 24.1733 150.412 23.96C150.625 23.76 150.732 23.5 150.732 23.18C150.732 22.8867 150.665 22.66 150.532 22.5C150.399 22.3267 150.225 22.2067 150.012 22.14C149.812 22.0733 149.605 22.0333 149.392 22.02C149.179 22.0067 148.999 22 148.852 22H146.392C145.752 22.0933 145.299 22.2733 145.032 22.54C144.779 22.8067 144.652 23.1 144.652 23.42C144.652 23.74 144.759 23.98 144.972 24.14C145.185 24.3133 145.492 24.4267 145.892 24.48C146.305 24.5333 146.799 24.56 147.372 24.56ZM147.432 17.86C148.125 17.86 148.652 17.7 149.012 17.38C149.372 17.0467 149.552 16.6133 149.552 16.08C149.552 15.5067 149.365 15.04 148.992 14.68C148.632 14.3067 148.105 14.12 147.412 14.12C146.719 14.12 146.179 14.3 145.792 14.66C145.419 15.02 145.232 15.48 145.232 16.04C145.232 16.4 145.312 16.72 145.472 17C145.645 17.2667 145.892 17.48 146.212 17.64C146.545 17.7867 146.952 17.86 147.432 17.86ZM157.348 23.26C156.774 23.26 156.261 23.1533 155.808 22.94C155.354 22.7133 154.994 22.38 154.728 21.94C154.474 21.5 154.348 20.9533 154.348 20.3C154.348 19.7533 154.448 19.2867 154.648 18.9C154.861 18.5133 155.174 18.2 155.588 17.96C156.001 17.7067 156.514 17.5 157.128 17.34C157.741 17.1667 158.461 17.02 159.288 16.9C159.741 16.8333 160.108 16.7667 160.388 16.7C160.681 16.6333 160.894 16.5333 161.028 16.4C161.161 16.2533 161.228 16.04 161.228 15.76C161.228 15.3467 161.081 14.9933 160.788 14.7C160.508 14.3933 160.048 14.24 159.408 14.24C159.021 14.24 158.648 14.3067 158.288 14.44C157.941 14.5733 157.641 14.7867 157.388 15.08C157.134 15.36 156.961 15.7333 156.868 16.2L154.608 15.5C154.754 14.9667 154.968 14.5067 155.248 14.12C155.528 13.72 155.874 13.38 156.288 13.1C156.701 12.82 157.174 12.6133 157.708 12.48C158.241 12.3467 158.828 12.28 159.468 12.28C160.441 12.28 161.241 12.44 161.868 12.76C162.494 13.0667 162.961 13.5533 163.268 14.22C163.574 14.8733 163.728 15.72 163.728 16.76V18.72C163.728 19.1733 163.734 19.6467 163.748 20.14C163.774 20.62 163.801 21.1067 163.828 21.6C163.868 22.08 163.914 22.5467 163.968 23H161.708C161.654 22.6267 161.608 22.2267 161.568 21.8C161.528 21.3733 161.494 20.94 161.468 20.5H161.148C160.961 21.0067 160.694 21.4733 160.348 21.9C160.001 22.3133 159.574 22.6467 159.068 22.9C158.574 23.14 158.001 23.26 157.348 23.26ZM158.348 21.4C158.614 21.4 158.881 21.3533 159.148 21.26C159.428 21.1667 159.701 21.0267 159.968 20.84C160.234 20.6533 160.481 20.4267 160.708 20.16C160.934 19.88 161.128 19.5533 161.288 19.18L161.248 17.4L161.728 17.48C161.501 17.6667 161.221 17.8133 160.888 17.92C160.554 18.0267 160.201 18.1067 159.828 18.16C159.468 18.2133 159.101 18.28 158.728 18.36C158.368 18.4267 158.041 18.52 157.748 18.64C157.454 18.7467 157.221 18.9067 157.048 19.12C156.874 19.32 156.788 19.6 156.788 19.96C156.788 20.4133 156.934 20.7667 157.228 21.02C157.521 21.2733 157.894 21.4 158.348 21.4ZM166.451 23V16.62V12.54H168.551L168.491 15.74H168.851C169.038 14.9533 169.285 14.3067 169.591 13.8C169.911 13.2933 170.318 12.9133 170.811 12.66C171.305 12.4067 171.878 12.28 172.531 12.28C173.718 12.28 174.618 12.7 175.231 13.54C175.858 14.38 176.171 15.68 176.171 17.44V23H173.631V17.7C173.631 16.5667 173.458 15.74 173.111 15.22C172.778 14.6867 172.278 14.42 171.611 14.42C171.051 14.42 170.578 14.6 170.191 14.96C169.805 15.3067 169.505 15.7733 169.291 16.36C169.091 16.9333 168.985 17.5667 168.971 18.26V23H166.451ZM183.534 23.26C182.627 23.26 181.841 23.1267 181.174 22.86C180.521 22.5933 179.974 22.22 179.534 21.74C179.107 21.2467 178.787 20.6733 178.574 20.02C178.361 19.3667 178.254 18.66 178.254 17.9C178.254 17.0867 178.361 16.34 178.574 15.66C178.801 14.98 179.134 14.3867 179.574 13.88C180.014 13.3733 180.554 12.98 181.194 12.7C181.847 12.42 182.594 12.28 183.434 12.28C184.274 12.28 185.001 12.42 185.614 12.7C186.241 12.98 186.747 13.3733 187.134 13.88C187.521 14.3733 187.781 14.9533 187.914 15.62L185.554 16.36C185.527 15.96 185.421 15.6067 185.234 15.3C185.047 14.98 184.794 14.7333 184.474 14.56C184.154 14.3867 183.774 14.3 183.334 14.3C182.907 14.3 182.534 14.3867 182.214 14.56C181.907 14.72 181.647 14.9533 181.434 15.26C181.234 15.5667 181.074 15.94 180.954 16.38C180.847 16.8067 180.794 17.2867 180.794 17.82C180.794 18.5533 180.894 19.18 181.094 19.7C181.294 20.22 181.601 20.6267 182.014 20.92C182.427 21.2 182.941 21.34 183.554 21.34C184.101 21.34 184.541 21.24 184.874 21.04C185.221 20.8267 185.481 20.5533 185.654 20.22C185.841 19.8867 185.954 19.52 185.994 19.12L188.234 19.62C188.154 20.1667 188.001 20.66 187.774 21.1C187.547 21.54 187.234 21.9267 186.834 22.26C186.447 22.58 185.981 22.8267 185.434 23C184.887 23.1733 184.254 23.26 183.534 23.26ZM194.745 23.26C193.905 23.26 193.152 23.14 192.485 22.9C191.832 22.66 191.279 22.3133 190.825 21.86C190.372 21.3933 190.025 20.8333 189.785 20.18C189.545 19.5267 189.425 18.7867 189.425 17.96C189.425 17.1333 189.539 16.3733 189.765 15.68C190.005 14.9867 190.345 14.3867 190.785 13.88C191.225 13.3733 191.759 12.98 192.385 12.7C193.025 12.42 193.752 12.28 194.565 12.28C195.325 12.28 196.005 12.4067 196.605 12.66C197.205 12.9133 197.712 13.2933 198.125 13.8C198.539 14.2933 198.845 14.9133 199.045 15.66C199.245 16.3933 199.312 17.2467 199.245 18.22L191.065 18.28V16.82L197.785 16.76L196.905 17.58C196.985 16.82 196.925 16.2 196.725 15.72C196.525 15.2267 196.239 14.8667 195.865 14.64C195.492 14.4 195.065 14.28 194.585 14.28C194.039 14.28 193.559 14.4267 193.145 14.72C192.732 15 192.412 15.4133 192.185 15.96C191.972 16.4933 191.865 17.1467 191.865 17.92C191.865 19.08 192.119 19.9467 192.625 20.52C193.145 21.0933 193.852 21.38 194.745 21.38C195.145 21.38 195.479 21.3333 195.745 21.24C196.025 21.1333 196.259 21 196.445 20.84C196.632 20.6667 196.779 20.4733 196.885 20.26C197.005 20.0467 197.099 19.82 197.165 19.58L199.365 20.08C199.259 20.5733 199.085 21.0133 198.845 21.4C198.605 21.7867 198.292 22.12 197.905 22.4C197.532 22.68 197.085 22.8933 196.565 23.04C196.045 23.1867 195.439 23.26 194.745 23.26Z" fill="#183030"></path></svg>