<svg xmlns="http://www.w3.org/2000/svg" id="Capa_1" height="512" viewBox="0 0 512 512" width="512"><g><g id="Page-1_95_"><g id="_x30_96---Sun-Lamps"><path id="Shape_196_" d="m495.093 478.131c-8.194-10.892-21.024-17.309-34.654-17.331-4.057-.005-8.058-.948-11.691-2.756l-2.475-1.246c-6.003-2.95-12.597-4.499-19.285-4.531h-17.408v-20.309c8.86 7.6 20.148 11.777 31.821 11.776 14.644-.085 28.653-5.985 38.946-16.401 14.037-14.037 20.258-48.845 23.04-75.563.554-5.146-1.257-10.265-4.924-13.918-3.671-3.633-8.771-5.438-13.909-4.924-26.726 2.748-61.534 8.969-75.571 23.04-3.007 2.977-5.669 6.283-7.936 9.856-2.269-3.615-4.934-6.967-7.945-9.993-10.199-8.368-22.39-13.953-35.388-16.213.193-1.673.373-3.317.538-4.932.543-5.143-1.265-10.256-4.921-13.914s-8.769-5.469-13.912-4.927c-26.726 2.748-61.534 8.969-75.571 23.04-2.988 3.004-5.627 6.336-7.868 9.933-2.248-3.616-4.899-6.965-7.902-9.984-14.037-14.037-48.845-20.258-75.563-23.04-5.143-.543-10.256 1.265-13.914 4.921s-5.469 8.769-4.927 13.912c.162 1.613.341 3.268.538 4.941-13.016 2.269-25.221 7.876-35.422 16.273-2.996 3.027-5.638 6.385-7.876 10.01-2.247-3.602-4.892-6.939-7.885-9.95-14.037-14.037-48.845-20.258-75.563-23.04-5.143-.543-10.256 1.265-13.914 4.921s-5.469 8.769-4.927 13.912c2.748 26.726 8.969 61.534 23.04 75.571 10.269 10.429 24.259 16.353 38.895 16.469 11.673.001 22.961-4.176 31.821-11.776v20.309h-17.408c-6.723.037-13.349 1.601-19.379 4.574l-2.347 1.186c-3.642 1.818-7.655 2.767-11.725 2.773-13.62.02-26.442 6.426-34.637 17.306l-4.958 6.588c-3.879 5.172-4.503 12.091-1.612 17.872 2.891 5.782 8.801 9.434 15.265 9.434h460.8c6.464 0 12.374-3.652 15.265-9.434s2.267-12.701-1.612-17.872zm-119.987-25.864c-6.723.037-13.349 1.601-19.379 4.574l-2.347 1.186c-3.642 1.818-7.655 2.767-11.725 2.773-4.378.07-8.718.816-12.868 2.21-4.323-1.442-8.848-2.188-13.406-2.21-4.082-.005-8.107-.957-11.759-2.782l-2.347-1.178c-6.021-2.997-12.653-4.562-19.379-4.574h-17.382v-37.376c8.86 7.6 20.148 11.777 31.821 11.776 7.227-.021 14.376-1.489 21.026-4.318 9.061 11.599 22.333 19.154 36.932 21.026 2.11.254 4.232.383 6.357.384 11.701-.005 23.011-4.218 31.863-11.87v20.378h-17.407zm45.91-84.301c7.945-7.953 32.35-14.72 65.357-17.988-3.413 32.905-10.138 57.31-18.091 65.254-6.779 6.91-15.929 10.988-25.6 11.409-8.934.541-17.67-2.781-23.987-9.122-6.269-6.363-9.576-15.067-9.114-23.987.436-9.663 4.523-18.8 11.435-25.566zm-39.911 0c7.213 7.057 11.319 16.696 11.409 26.786.091 8.498-3.218 16.679-9.19 22.724-7.14 6.966-17.088 10.258-26.974 8.926-9.466-1.246-18.139-5.944-24.354-13.193 1.118-.956 2.227-1.92 3.285-2.978 10.394-10.394 16.495-32.179 20.079-53.632 9.382 1.606 18.224 5.498 25.745 11.332zm-105.156-17.067c7.945-7.953 32.35-14.72 65.357-17.988-3.413 32.905-10.138 57.31-18.091 65.254-6.779 6.91-15.929 10.988-25.6 11.409-8.93.511-17.654-2.807-23.987-9.122-6.269-6.363-9.576-15.067-9.114-23.987.436-9.662 4.523-18.8 11.435-25.566zm-39.936 0c6.91 6.779 10.988 15.929 11.409 25.6.46 8.922-2.85 17.626-9.122 23.987-6.331 6.318-15.058 9.633-23.987 9.114-9.671-.421-18.821-4.499-25.6-11.409-7.953-7.945-14.72-32.35-17.988-65.357 32.938 3.379 57.343 10.112 65.288 18.065zm-105.191 17.067c7.524-5.857 16.38-9.762 25.779-11.366 3.584 21.453 9.685 43.238 20.079 53.632 1.058 1.058 2.167 2.022 3.285 2.978-6.215 7.248-14.888 11.946-24.354 13.193-9.885 1.321-19.829-1.969-26.974-8.926-12.999-14.301-12.024-36.412 2.185-49.511zm-37.546 49.553c-6.328 6.353-15.079 9.684-24.03 9.148-9.671-.421-18.821-4.499-25.6-11.409-7.919-7.97-14.652-32.375-17.954-65.391 32.905 3.413 57.31 10.138 65.254 18.091 6.91 6.779 10.988 15.929 11.409 25.6.453 8.913-2.857 17.606-9.122 23.962h.043zm26.172 14.37c8.856 7.642 20.165 11.846 31.863 11.844 2.125-.001 4.248-.13 6.357-.384 14.599-1.872 27.871-9.427 36.932-21.026 6.648 2.837 13.798 4.314 21.026 4.343 11.673.001 22.961-4.176 31.821-11.776v37.376h-17.382c-6.714.009-13.335 1.572-19.345 4.565l-2.415 1.195c-3.64 1.821-7.654 2.771-11.725 2.773-4.557.022-9.083.768-13.406 2.21-4.15-1.395-8.491-2.14-12.868-2.21-4.057-.005-8.058-.948-11.691-2.756l-2.475-1.246c-6.003-2.95-12.597-4.499-19.285-4.531h-17.408v-20.377zm-93.867 63.044 4.966-6.596c4.962-6.588 12.728-10.464 20.975-10.47 6.725-.016 13.356-1.581 19.379-4.574l2.287-1.161c3.66-1.828 7.693-2.786 11.785-2.799h51.883c4.057.008 8.057.952 11.691 2.756l2.415 1.22c3.738 1.827 7.718 3.112 11.819 3.814-.273.341-.589.649-.853.998l-4.924 6.571c-2.188 2.961-3.342 6.559-3.285 10.24h-128.138zm290.133 0h-145.066l4.915-6.579c4.977-6.594 12.756-10.476 21.018-10.487 6.714-.009 13.335-1.572 19.345-4.565l2.415-1.195c3.64-1.821 7.654-2.771 11.725-2.773h51.831c4.082.005 8.107.957 11.759 2.782l2.347 1.178c6.021 2.997 12.653 4.562 19.379 4.574 8.251.018 16.017 3.899 20.983 10.487l4.949 6.579h-25.6zm42.522 0c.059-3.68-1.092-7.278-3.277-10.24l-4.932-6.579c-.264-.35-.58-.657-.853-.998 4.113-.707 8.104-1.997 11.853-3.831l2.287-1.161c3.664-1.826 7.7-2.781 11.793-2.79h51.883c4.057.008 8.057.952 11.691 2.756l2.415 1.22c6.013 2.983 12.633 4.542 19.345 4.557 8.261.01 16.038 3.9 21.001 10.505l4.941 6.562h-128.147z"></path><path id="Shape_195_" d="m383.981 153.6v-27.068c.019-6.793-2.682-13.311-7.501-18.099l-49.732-49.732c-4.79-4.816-11.307-7.516-18.099-7.501h-10.001v-25.6c0-14.138-11.462-25.6-25.6-25.6h-34.133c-14.139 0-25.6 11.462-25.6 25.6v25.6h-10.001c-6.792-.016-13.309 2.685-18.099 7.501l-49.732 49.732c-4.816 4.79-7.516 11.307-7.501 18.099v27.068c0 9.426 7.641 17.067 17.067 17.067h43.255c4.275 34.124 33.287 59.728 67.678 59.728s63.403-25.604 67.678-59.728h43.255c9.425 0 17.066-7.641 17.066-17.067zm-153.6-128c0-4.713 3.821-8.533 8.533-8.533h34.133c4.713 0 8.533 3.821 8.533 8.533v25.6h-51.2v-25.6zm25.6 187.733c-24.957-.046-46.252-18.062-50.432-42.667h100.864c-4.18 24.605-25.475 42.621-50.432 42.667zm-110.933-59.733v-27.068c0-2.263.9-4.433 2.5-6.033l49.732-49.732c1.6-1.6 3.77-2.5 6.033-2.5h105.335c2.263 0 4.433.9 6.033 2.5l49.732 49.732c1.6 1.6 2.5 3.77 2.5 6.033v27.068z"></path><g clip-rule="evenodd" fill-rule="evenodd"><path id="Path_183_" d="m247.448 256v25.6c0 4.713 3.821 8.533 8.533 8.533 4.713 0 8.533-3.821 8.533-8.533v-25.6c0-4.713-3.821-8.533-8.533-8.533-4.713 0-8.533 3.82-8.533 8.533z"></path><path id="Path_182_" d="m298.648 236.032c-4.081 2.356-5.479 7.575-3.123 11.657l12.8 22.187c2.372 4.047 7.566 5.42 11.628 3.074 4.062-2.345 5.47-7.53 3.151-11.608l-12.8-22.187c-2.356-4.081-7.575-5.479-11.656-3.123z"></path><path id="Path_181_" d="m201.658 239.155-12.8 22.187c-1.549 2.642-1.563 5.911-.038 8.566s4.356 4.29 7.418 4.283 5.886-1.654 7.399-4.316l12.8-22.187c2.318-4.078.911-9.262-3.151-11.608-4.062-2.345-9.256-.971-11.628 3.075z"></path><path id="Path_180_" d="m170.426 201.677-22.187 12.8c-2.662 1.513-4.309 4.337-4.316 7.399s1.628 5.893 4.283 7.418 5.924 1.511 8.566-.038l22.187-12.8c2.662-1.513 4.309-4.337 4.316-7.399s-1.628-5.893-4.283-7.418c-2.656-1.525-5.925-1.511-8.566.038z"></path><path id="Path_179_" d="m363.706 214.477-22.187-12.8c-2.642-1.549-5.911-1.563-8.566-.038s-4.29 4.356-4.283 7.418 1.654 5.886 4.316 7.399l22.187 12.8c2.642 1.549 5.911 1.563 8.566.038s4.29-4.356 4.283-7.418-1.654-5.886-4.316-7.399z"></path></g></g></g></g></svg>