<svg xmlns="http://www.w3.org/2000/svg" width="255" height="38" viewBox="0 0 255 38" fill="none"><mask id="mask0_323_500" style="mask-type:alpha" maskUnits="userSpaceOnUse" x="0" y="0" width="38" height="38"><rect width="38" height="38" fill="#D9D9D9"></rect></mask><g mask="url(#mask0_323_500)"><path d="M18.9999 31.6666C17.5221 31.6666 16.1301 31.4357 14.8238 30.9739C13.5176 30.5121 12.3235 29.859 11.2415 29.0145L9.02486 31.1916C8.73458 31.4819 8.36514 31.627 7.91652 31.627C7.46791 31.627 7.09847 31.4819 6.80819 31.1916C6.51791 30.9013 6.37277 30.5319 6.37277 30.0833C6.37277 29.6347 6.51791 29.2652 6.80819 28.975L8.98527 26.7979C8.14083 25.7159 7.4877 24.5152 7.0259 23.1958C6.56409 21.8763 6.33319 20.4777 6.33319 19C6.33319 15.4638 7.56027 12.4687 10.0144 10.0145C12.4686 7.56037 15.4637 6.33329 18.9999 6.33329H31.6665V19C31.6665 22.5361 30.4394 25.5312 27.9853 27.9854C25.5311 30.4395 22.536 31.6666 18.9999 31.6666ZM18.9999 28.5C21.6387 28.5 23.8818 27.5763 25.729 25.7291C27.5762 23.8819 28.4999 21.6388 28.4999 19V9.49996H18.9999C16.361 9.49996 14.1179 10.4236 12.2707 12.2708C10.4235 14.118 9.49986 16.3611 9.49986 19C9.49986 20.0291 9.65819 21.0121 9.97486 21.9489C10.2915 22.8857 10.7269 23.7368 11.2811 24.502L19.4749 16.3083C19.7651 16.018 20.1346 15.8729 20.5832 15.8729C21.0318 15.8729 21.4012 16.018 21.6915 16.3083C22.0082 16.625 22.1665 17.001 22.1665 17.4364C22.1665 17.8718 22.0082 18.2479 21.6915 18.5645L13.4978 26.7583C14.2631 27.3125 15.1141 27.7413 16.0509 28.0447C16.9877 28.3482 17.9707 28.5 18.9999 28.5Z" fill="#F3FAF6"></path></g><path d="M46.028 27.5V10.34H49.33V27.5H46.028ZM48.16 27.5V24.796H58.846V27.5H48.16ZM48.16 20.038V17.542H57.572V20.038H48.16ZM48.16 13.044V10.34H58.794V13.044H48.16ZM64.8104 27.838C64.065 27.838 63.3977 27.6993 62.8084 27.422C62.219 27.1273 61.751 26.694 61.4044 26.122C61.075 25.55 60.9104 24.8393 60.9104 23.99C60.9104 23.2793 61.0404 22.6727 61.3004 22.17C61.5777 21.6673 61.985 21.26 62.5224 20.948C63.0597 20.6187 63.727 20.35 64.5244 20.142C65.3217 19.9167 66.2577 19.726 67.3324 19.57C67.9217 19.4833 68.3984 19.3967 68.7624 19.31C69.1437 19.2233 69.421 19.0933 69.5944 18.92C69.7677 18.7293 69.8544 18.452 69.8544 18.088C69.8544 17.5507 69.6637 17.0913 69.2824 16.71C68.9184 16.3113 68.3204 16.112 67.4884 16.112C66.9857 16.112 66.5004 16.1987 66.0324 16.372C65.5817 16.5453 65.1917 16.8227 64.8624 17.204C64.533 17.568 64.3077 18.0533 64.1864 18.66L61.2484 17.75C61.439 17.0567 61.7164 16.4587 62.0804 15.956C62.4444 15.436 62.895 14.994 63.4324 14.63C63.9697 14.266 64.585 13.9973 65.2784 13.824C65.9717 13.6507 66.7344 13.564 67.5664 13.564C68.8317 13.564 69.8717 13.772 70.6864 14.188C71.501 14.5867 72.1077 15.2193 72.5064 16.086C72.905 16.9353 73.1044 18.036 73.1044 19.388V21.936C73.1044 22.5253 73.113 23.1407 73.1304 23.782C73.165 24.406 73.1997 25.0387 73.2344 25.68C73.2864 26.304 73.347 26.9107 73.4164 27.5H70.4784C70.409 27.0147 70.3484 26.4947 70.2964 25.94C70.2444 25.3853 70.201 24.822 70.1664 24.25H69.7504C69.5077 24.9087 69.161 25.5153 68.7104 26.07C68.2597 26.6073 67.705 27.0407 67.0464 27.37C66.405 27.682 65.6597 27.838 64.8104 27.838ZM66.1104 25.42C66.457 25.42 66.8037 25.3593 67.1504 25.238C67.5144 25.1167 67.8697 24.9347 68.2164 24.692C68.563 24.4493 68.8837 24.1547 69.1784 23.808C69.473 23.444 69.7244 23.0193 69.9324 22.534L69.8804 20.22L70.5044 20.324C70.2097 20.5667 69.8457 20.7573 69.4124 20.896C68.979 21.0347 68.5197 21.1387 68.0344 21.208C67.5664 21.2773 67.0897 21.364 66.6044 21.468C66.1364 21.5547 65.7117 21.676 65.3304 21.832C64.949 21.9707 64.6457 22.1787 64.4204 22.456C64.195 22.716 64.0824 23.08 64.0824 23.548C64.0824 24.1373 64.273 24.5967 64.6544 24.926C65.0357 25.2553 65.521 25.42 66.1104 25.42ZM76.6448 27.5V20.688V13.902H79.4008L79.3488 18.582H79.8168C79.9728 17.4727 80.2155 16.554 80.5448 15.826C80.8742 15.0807 81.3335 14.526 81.9228 14.162C82.5122 13.7807 83.2402 13.59 84.1068 13.59C84.2802 13.59 84.4622 13.5987 84.6528 13.616C84.8608 13.6333 85.0862 13.6767 85.3288 13.746L85.1988 17.204C84.9215 17.1 84.6355 17.0307 84.3408 16.996C84.0635 16.944 83.8035 16.918 83.5608 16.918C82.8848 16.918 82.2955 17.0913 81.7928 17.438C81.3075 17.7847 80.9088 18.2787 80.5968 18.92C80.3022 19.544 80.0768 20.2893 79.9208 21.156V27.5H76.6448ZM92.9302 27.812C91.4915 27.812 90.4342 27.4307 89.7582 26.668C89.0822 25.888 88.7442 24.6833 88.7442 23.054V16.528H86.7422L86.7942 13.928H88.1202C88.6228 13.928 88.9955 13.85 89.2382 13.694C89.4808 13.538 89.6282 13.2607 89.6802 12.862L89.9922 10.886H91.8902V13.902H95.4782V16.632H91.8902V22.924C91.8902 23.5653 92.0375 24.0333 92.3322 24.328C92.6442 24.6227 93.1035 24.77 93.7102 24.77C94.0395 24.77 94.3602 24.7353 94.6722 24.666C95.0015 24.5793 95.3048 24.4407 95.5822 24.25V27.37C95.0448 27.5433 94.5508 27.656 94.1002 27.708C93.6668 27.7773 93.2768 27.812 92.9302 27.812ZM98.2776 27.5V19.05V9.04H101.58V13.278C101.58 13.642 101.562 14.0147 101.528 14.396C101.51 14.7773 101.476 15.1673 101.424 15.566C101.372 15.9647 101.311 16.3633 101.242 16.762C101.19 17.1607 101.129 17.5593 101.06 17.958H101.606C101.848 17.022 102.16 16.2333 102.542 15.592C102.923 14.9333 103.408 14.4307 103.998 14.084C104.604 13.7373 105.341 13.564 106.208 13.564C107.785 13.564 108.964 14.1187 109.744 15.228C110.524 16.32 110.914 17.984 110.914 20.22V27.5H107.612V20.688C107.612 19.1973 107.386 18.0967 106.936 17.386C106.502 16.6753 105.844 16.32 104.96 16.32C104.232 16.32 103.625 16.5453 103.14 16.996C102.654 17.4293 102.282 18.01 102.022 18.738C101.762 19.466 101.606 20.2893 101.554 21.208V27.5H98.2776ZM114.375 27.5V9.04H117.599V27.5H114.375ZM126.199 32.154C125.505 32.154 124.803 32.0847 124.093 31.946C123.382 31.8073 122.715 31.5907 122.091 31.296C121.484 31.0187 120.973 30.6547 120.557 30.204L121.675 27.5C122.177 28.072 122.827 28.5053 123.625 28.8C124.422 29.0947 125.228 29.242 126.043 29.242C126.996 29.242 127.785 29.0427 128.409 28.644C129.033 28.2627 129.509 27.6647 129.839 26.85C130.168 26.0353 130.35 25.0213 130.385 23.808L130.567 21.338H130.021C129.847 22.5167 129.561 23.4787 129.163 24.224C128.764 24.952 128.261 25.4893 127.655 25.836C127.065 26.1653 126.372 26.33 125.575 26.33C124.587 26.33 123.755 26.0787 123.079 25.576C122.403 25.0733 121.891 24.328 121.545 23.34C121.215 22.352 121.051 21.13 121.051 19.674V13.902H124.353V18.92C124.353 20.5493 124.552 21.7367 124.951 22.482C125.349 23.21 125.956 23.574 126.771 23.574C127.204 23.574 127.603 23.4613 127.967 23.236C128.331 22.9933 128.634 22.6553 128.877 22.222C129.137 21.7713 129.336 21.2167 129.475 20.558C129.631 19.8993 129.717 19.1453 129.735 18.296V13.902H133.037V23.938C133.037 25.03 132.941 26.018 132.751 26.902C132.577 27.7687 132.309 28.5227 131.945 29.164C131.581 29.8227 131.121 30.3773 130.567 30.828C130.029 31.2787 129.397 31.608 128.669 31.816C127.941 32.0413 127.117 32.154 126.199 32.154ZM143.046 27.5V10.34H146.348V27.5H143.046ZM145.178 27.5V24.796H155.864V27.5H145.178ZM145.178 20.038V17.542H154.59V20.038H145.178ZM145.178 13.044V10.34H155.812V13.044H145.178ZM158.733 27.5V9.04H161.957V27.5H158.733ZM171.775 27.838C170.683 27.838 169.704 27.682 168.837 27.37C167.988 27.058 167.268 26.6073 166.679 26.018C166.09 25.4113 165.639 24.6833 165.327 23.834C165.015 22.9847 164.859 22.0227 164.859 20.948C164.859 19.8733 165.006 18.8853 165.301 17.984C165.613 17.0827 166.055 16.3027 166.627 15.644C167.199 14.9853 167.892 14.474 168.707 14.11C169.539 13.746 170.484 13.564 171.541 13.564C172.529 13.564 173.413 13.7287 174.193 14.058C174.973 14.3873 175.632 14.8813 176.169 15.54C176.706 16.1813 177.105 16.9873 177.365 17.958C177.625 18.9113 177.712 20.0207 177.625 21.286L166.991 21.364V19.466L175.727 19.388L174.583 20.454C174.687 19.466 174.609 18.66 174.349 18.036C174.089 17.3947 173.716 16.9267 173.231 16.632C172.746 16.32 172.191 16.164 171.567 16.164C170.856 16.164 170.232 16.3547 169.695 16.736C169.158 17.1 168.742 17.6373 168.447 18.348C168.17 19.0413 168.031 19.8907 168.031 20.896C168.031 22.404 168.36 23.5307 169.019 24.276C169.695 25.0213 170.614 25.394 171.775 25.394C172.295 25.394 172.728 25.3333 173.075 25.212C173.439 25.0733 173.742 24.9 173.985 24.692C174.228 24.4667 174.418 24.2153 174.557 23.938C174.713 23.6607 174.834 23.366 174.921 23.054L177.781 23.704C177.642 24.3453 177.417 24.9173 177.105 25.42C176.793 25.9227 176.386 26.356 175.883 26.72C175.398 27.084 174.817 27.3613 174.141 27.552C173.465 27.7427 172.676 27.838 171.775 27.838ZM185.897 32.18C184.424 32.18 183.211 32.0673 182.257 31.842C181.321 31.6167 180.628 31.2787 180.177 30.828C179.727 30.3773 179.501 29.8227 179.501 29.164C179.501 28.3667 179.813 27.7167 180.437 27.214C181.079 26.694 182.023 26.3733 183.271 26.252V25.732C182.335 25.7493 181.625 25.654 181.139 25.446C180.654 25.2207 180.411 24.8653 180.411 24.38C180.411 23.912 180.645 23.496 181.113 23.132C181.599 22.768 182.396 22.4647 183.505 22.222V21.702C182.448 21.65 181.625 21.3207 181.035 20.714C180.446 20.09 180.151 19.284 180.151 18.296C180.151 17.412 180.394 16.632 180.879 15.956C181.365 15.28 182.075 14.7513 183.011 14.37C183.965 13.9713 185.117 13.772 186.469 13.772H193.203V16.372L188.939 15.748V16.32C190.014 16.4933 190.803 16.7967 191.305 17.23C191.825 17.6633 192.085 18.2527 192.085 18.998C192.085 19.7087 191.86 20.3413 191.409 20.896C190.959 21.4333 190.3 21.858 189.433 22.17C188.584 22.4647 187.553 22.612 186.339 22.612C186.114 22.612 185.871 22.6033 185.611 22.586C185.351 22.5687 184.944 22.5253 184.389 22.456C184.025 22.716 183.731 22.95 183.505 23.158C183.28 23.3487 183.167 23.5307 183.167 23.704C183.167 23.8427 183.254 23.964 183.427 24.068C183.601 24.1547 183.826 24.2153 184.103 24.25C184.381 24.2847 184.649 24.302 184.909 24.302H188.523C188.87 24.302 189.312 24.328 189.849 24.38C190.404 24.432 190.95 24.5707 191.487 24.796C192.042 25.0213 192.501 25.3767 192.865 25.862C193.247 26.3473 193.437 27.032 193.437 27.916C193.437 28.904 193.151 29.71 192.579 30.334C192.025 30.9753 191.184 31.4433 190.057 31.738C188.948 32.0327 187.561 32.18 185.897 32.18ZM186.183 29.528C187.258 29.528 188.116 29.4673 188.757 29.346C189.399 29.2247 189.858 29.0253 190.135 28.748C190.413 28.488 190.551 28.15 190.551 27.734C190.551 27.3527 190.465 27.058 190.291 26.85C190.118 26.6247 189.893 26.4687 189.615 26.382C189.355 26.2953 189.087 26.2433 188.809 26.226C188.532 26.2087 188.298 26.2 188.107 26.2H184.909C184.077 26.3213 183.488 26.5553 183.141 26.902C182.812 27.2487 182.647 27.63 182.647 28.046C182.647 28.462 182.786 28.774 183.063 28.982C183.341 29.2073 183.739 29.3547 184.259 29.424C184.797 29.4933 185.438 29.528 186.183 29.528ZM186.261 20.818C187.163 20.818 187.847 20.61 188.315 20.194C188.783 19.7607 189.017 19.1973 189.017 18.504C189.017 17.7587 188.775 17.152 188.289 16.684C187.821 16.1987 187.137 15.956 186.235 15.956C185.334 15.956 184.632 16.19 184.129 16.658C183.644 17.126 183.401 17.724 183.401 18.452C183.401 18.92 183.505 19.336 183.713 19.7C183.939 20.0467 184.259 20.324 184.675 20.532C185.109 20.7227 185.637 20.818 186.261 20.818ZM199.152 27.838C198.407 27.838 197.739 27.6993 197.15 27.422C196.561 27.1273 196.093 26.694 195.746 26.122C195.417 25.55 195.252 24.8393 195.252 23.99C195.252 23.2793 195.382 22.6727 195.642 22.17C195.919 21.6673 196.327 21.26 196.864 20.948C197.401 20.6187 198.069 20.35 198.866 20.142C199.663 19.9167 200.599 19.726 201.674 19.57C202.263 19.4833 202.74 19.3967 203.104 19.31C203.485 19.2233 203.763 19.0933 203.936 18.92C204.109 18.7293 204.196 18.452 204.196 18.088C204.196 17.5507 204.005 17.0913 203.624 16.71C203.26 16.3113 202.662 16.112 201.83 16.112C201.327 16.112 200.842 16.1987 200.374 16.372C199.923 16.5453 199.533 16.8227 199.204 17.204C198.875 17.568 198.649 18.0533 198.528 18.66L195.59 17.75C195.781 17.0567 196.058 16.4587 196.422 15.956C196.786 15.436 197.237 14.994 197.774 14.63C198.311 14.266 198.927 13.9973 199.62 13.824C200.313 13.6507 201.076 13.564 201.908 13.564C203.173 13.564 204.213 13.772 205.028 14.188C205.843 14.5867 206.449 15.2193 206.848 16.086C207.247 16.9353 207.446 18.036 207.446 19.388V21.936C207.446 22.5253 207.455 23.1407 207.472 23.782C207.507 24.406 207.541 25.0387 207.576 25.68C207.628 26.304 207.689 26.9107 207.758 27.5H204.82C204.751 27.0147 204.69 26.4947 204.638 25.94C204.586 25.3853 204.543 24.822 204.508 24.25H204.092C203.849 24.9087 203.503 25.5153 203.052 26.07C202.601 26.6073 202.047 27.0407 201.388 27.37C200.747 27.682 200.001 27.838 199.152 27.838ZM200.452 25.42C200.799 25.42 201.145 25.3593 201.492 25.238C201.856 25.1167 202.211 24.9347 202.558 24.692C202.905 24.4493 203.225 24.1547 203.52 23.808C203.815 23.444 204.066 23.0193 204.274 22.534L204.222 20.22L204.846 20.324C204.551 20.5667 204.187 20.7573 203.754 20.896C203.321 21.0347 202.861 21.1387 202.376 21.208C201.908 21.2773 201.431 21.364 200.946 21.468C200.478 21.5547 200.053 21.676 199.672 21.832C199.291 21.9707 198.987 22.1787 198.762 22.456C198.537 22.716 198.424 23.08 198.424 23.548C198.424 24.1373 198.615 24.5967 198.996 24.926C199.377 25.2553 199.863 25.42 200.452 25.42ZM210.987 27.5V19.206V13.902H213.717L213.639 18.062H214.107C214.349 17.0393 214.67 16.1987 215.069 15.54C215.485 14.8813 216.013 14.3873 216.655 14.058C217.296 13.7287 218.041 13.564 218.891 13.564C220.433 13.564 221.603 14.11 222.401 15.202C223.215 16.294 223.623 17.984 223.623 20.272V27.5H220.321V20.61C220.321 19.1367 220.095 18.062 219.645 17.386C219.211 16.6927 218.561 16.346 217.695 16.346C216.967 16.346 216.351 16.58 215.849 17.048C215.346 17.4987 214.956 18.1053 214.679 18.868C214.419 19.6133 214.28 20.4367 214.263 21.338V27.5H210.987ZM233.194 27.838C232.016 27.838 230.993 27.6647 230.126 27.318C229.277 26.9713 228.566 26.486 227.994 25.862C227.44 25.2207 227.024 24.4753 226.746 23.626C226.469 22.7767 226.33 21.858 226.33 20.87C226.33 19.8127 226.469 18.842 226.746 17.958C227.041 17.074 227.474 16.3027 228.046 15.644C228.618 14.9853 229.32 14.474 230.152 14.11C231.002 13.746 231.972 13.564 233.064 13.564C234.156 13.564 235.101 13.746 235.898 14.11C236.713 14.474 237.372 14.9853 237.874 15.644C238.377 16.2853 238.715 17.0393 238.888 17.906L235.82 18.868C235.786 18.348 235.647 17.8887 235.404 17.49C235.162 17.074 234.832 16.7533 234.416 16.528C234 16.3027 233.506 16.19 232.934 16.19C232.38 16.19 231.894 16.3027 231.478 16.528C231.08 16.736 230.742 17.0393 230.464 17.438C230.204 17.8367 229.996 18.322 229.84 18.894C229.702 19.4487 229.632 20.0727 229.632 20.766C229.632 21.7193 229.762 22.534 230.022 23.21C230.282 23.886 230.681 24.4147 231.218 24.796C231.756 25.16 232.423 25.342 233.22 25.342C233.931 25.342 234.503 25.212 234.936 24.952C235.387 24.6747 235.725 24.3193 235.95 23.886C236.193 23.4527 236.34 22.976 236.392 22.456L239.304 23.106C239.2 23.8167 239.001 24.458 238.706 25.03C238.412 25.602 238.004 26.1047 237.484 26.538C236.982 26.954 236.375 27.2747 235.664 27.5C234.954 27.7253 234.13 27.838 233.194 27.838ZM247.769 27.838C246.677 27.838 245.698 27.682 244.831 27.37C243.982 27.058 243.262 26.6073 242.673 26.018C242.084 25.4113 241.633 24.6833 241.321 23.834C241.009 22.9847 240.853 22.0227 240.853 20.948C240.853 19.8733 241 18.8853 241.295 17.984C241.607 17.0827 242.049 16.3027 242.621 15.644C243.193 14.9853 243.886 14.474 244.701 14.11C245.533 13.746 246.478 13.564 247.535 13.564C248.523 13.564 249.407 13.7287 250.187 14.058C250.967 14.3873 251.626 14.8813 252.163 15.54C252.7 16.1813 253.099 16.9873 253.359 17.958C253.619 18.9113 253.706 20.0207 253.619 21.286L242.985 21.364V19.466L251.721 19.388L250.577 20.454C250.681 19.466 250.603 18.66 250.343 18.036C250.083 17.3947 249.71 16.9267 249.225 16.632C248.74 16.32 248.185 16.164 247.561 16.164C246.85 16.164 246.226 16.3547 245.689 16.736C245.152 17.1 244.736 17.6373 244.441 18.348C244.164 19.0413 244.025 19.8907 244.025 20.896C244.025 22.404 244.354 23.5307 245.013 24.276C245.689 25.0213 246.608 25.394 247.769 25.394C248.289 25.394 248.722 25.3333 249.069 25.212C249.433 25.0733 249.736 24.9 249.979 24.692C250.222 24.4667 250.412 24.2153 250.551 23.938C250.707 23.6607 250.828 23.366 250.915 23.054L253.775 23.704C253.636 24.3453 253.411 24.9173 253.099 25.42C252.787 25.9227 252.38 26.356 251.877 26.72C251.392 27.084 250.811 27.3613 250.135 27.552C249.459 27.7427 248.67 27.838 247.769 27.838Z" fill="#F3FAF6"></path></svg>