<svg xmlns="http://www.w3.org/2000/svg" id="Layer_1" viewBox="0 0 54 54"><g><g><g><path d="m43.0957031 13.0493841.9067383-.421875c.3754883-.1748047.5380859-.6210938.3637695-.996582-.175293-.3754883-.6201172-.5371094-.996582-.3637695l-.9067383.421875c-.3754883.1748047-.5385742.6210938-.3637695.996582.1748962.3745899.6192284.5380707.996582.3637695z"></path><path d="m47.6289063 10.9400091.9067383-.421875c.3754883-.1748047.5380859-.6210938.3637695-.996582-.175293-.3754883-.6196289-.5380859-.996582-.3637695l-.9067383.421875c-.3754883.1748047-.5380859.6210938-.3637695.996582.1748962.3745899.6192283.5380707.996582.3637695z"></path><path d="m38.5625 15.1587591.9067383-.421875c.3754883-.1748047.5385742-.6210938.3637695-.996582-.175293-.375-.6201172-.5366211-.996582-.3637695l-.9067383.421875c-.3754883.1748047-.5380859.6210938-.3637695.996582.1748962.3745899.6192283.5380707.996582.3637695z"></path><path d="m42.2192383 18.569891h1c.4140625 0 .75-.3359375.75-.75s-.3359375-.75-.75-.75h-1c-.4140625 0-.75.3359375-.75.75s.3359375.75.75.75z"></path><path d="m47.2192383 18.569891h1c.4140625 0 .75-.3359375.75-.75s-.3359375-.75-.75-.75h-1c-.4140625 0-.75.3359375-.75.75s.3359375.75.75.75z"></path><path d="m37.4428711 18.569891h.7763672c.4140625 0 .75-.3359375.75-.75s-.3359375-.75-.75-.75h-.7763672c-.4140625 0-.75.3359375-.75.75s.3359375.75.75.75z"></path><path d="m39.4692383 20.9028988-.9067383-.421875c-.3759766-.1738281-.8212891-.0112305-.996582.3637695-.1743164.3754883-.0117188.8217773.3637695.996582l.9067383.421875c.3769264.1741047.8215027.0112076.996582-.3637695.1748047-.3754883.0117188-.8217773-.3637695-.996582z"></path><path d="m47.6289063 24.6997738c-.3754883-.1748047-.8212891-.0112305-.996582.3637695-.1743164.3754883-.0117188.8217773.3637695.996582l.9067383.421875c.3769264.1741047.8215027.0112076.996582-.3637695.1743164-.3754883.0117188-.8217773-.3637695-.996582z"></path><path d="m44.0024414 23.0122738-.9067383-.421875c-.3754883-.1733398-.8212891-.0117188-.996582.3637695-.1748047.3754883-.0117188.8217773.3637695.996582l.9067383.421875c.3769264.1741047.8215027.0112076.996582-.3637695.1743164-.3754883.0117188-.8217773-.3637695-.996582z"></path><path d="m8.8432617 12.6275091.9067383.421875c.3769245.1741028.8215036.0112066.996582-.3637695.1748047-.3754883.0117188-.8217773-.3637695-.996582l-.9067383-.421875c-.3754883-.1733398-.8212891-.0117188-.996582.3637695-.1743164.3754883-.0117188.8217773.3637695.996582z"></path><path d="m4.3100586 10.5181341.9067383.421875c.376925.1741028.8215036.0112066.996582-.3637695.1743164-.3754883.0117188-.8217773-.3637695-.996582l-.9067383-.421875c-.3754883-.1743165-.8212891-.0117188-.996582.3637695-.1743164.3754883-.0117188.8217773.3637695.996582z"></path><path d="m13.3764648 14.7368841.9067383.421875c.3769245.1741028.8215036.0112066.996582-.3637695.1743164-.3754883.0117188-.8217773-.3637695-.996582l-.9067383-.421875c-.3769531-.1728516-.8212891-.0112305-.996582.3637695-.1748047.3754883-.0117187.8217773.3637695.996582z"></path><path d="m9.6264648 17.069891c-.4140625 0-.75.3359375-.75.75s.3359375.75.75.75h1c.4140625 0 .75-.3359375.75-.75s-.3359375-.75-.75-.75z"></path><path d="m13.8764648 17.819891c0 .4140625.3359375.75.75.75h.7763672c.4140625 0 .75-.3359375.75-.75s-.3359375-.75-.75-.75h-.7763672c-.4140625 0-.75.3359375-.75.75z"></path><path d="m4.6264648 18.569891h1c.4140625 0 .75-.3359375.75-.75s-.3359375-.75-.75-.75h-1c-.4140625 0-.75.3359375-.75.75s.3359375.75.75.75z"></path><path d="m9.4760742 24.3726254.9067383-.421875c.3754883-.1748047.5385742-.6210938.3637695-.996582-.1752929-.3754884-.6210937-.5371095-.996582-.3637696l-.9067383.421875c-.3754883.1748047-.5380859.6210938-.3637695.996582.1748981.3745899.6192293.5380707.996582.3637696z"></path><path d="m5.2167969 24.6997738-.9067383.421875c-.3754883.1748047-.5380859.6210938-.3637695.996582.1274414.2729492.3979492.4335938.6806641.4335938.2781734 0 .3890424-.1246452 1.2226563-.4916992.3754883-.1748047.5380859-.6210938.3637695-.996582-.1752931-.3750001-.619629-.5385743-.9965821-.3637696z"></path><path d="m14.0092773 22.2632504.9067383-.421875c.3754883-.1748047.5380859-.6210938.3637695-.996582-.175293-.375-.6210938-.5375977-.996582-.3637695l-.9067383.421875c-.3754883.1748047-.5385742.6210938-.3637695.996582.1748982.3745898.6192293.5380706.996582.3637695z"></path><path d="m49.4633789 38.177803c-2.6636963-.3261719-5.3999023-.5373535-8.1479492-.6692505v-2.4057617c.9399414-.0838623 2.5257568-.394043 3.6508789-1.5153198 1.1831055-1.1787109 1.4736328-2.8789082 1.5415039-3.786623.0273438-.3647461-.1040039-.722168-.3603516-.9799805-.2563477-.2573242-.6064453-.3857422-.9794922-.3647461-.9086914.0649414-2.6098633.3505859-3.7919922 1.5288086-.3398438.3386841-.6027832.7211304-.8112793 1.1149902-.2084961-.3938599-.4714355-.7763062-.8112793-1.1149902-1.1821289-1.1782227-2.8833008-1.4638672-3.7924805-1.5288086-.3623047-.0327148-.7226563.1069336-.9790039.3647461s-.3876953.6152344-.3603516.9794922c.0678711.9082031.3583984 2.6084003 1.5415039 3.7871113 1.1260986 1.1218872 2.7127686 1.4317627 3.6523438 1.5154419v2.3416748c-2.796875-.1043091-5.5942383-.1306763-8.3325195-.1026001v-11.5963154h1.1669922c1.5170898 0 2.7509766-1.2338867 2.7509766-2.7509766v-1.5322266c0-.965332-.7851563-1.7504883-1.7504883-1.7504883h-1.1972656v-3.7841787h1.1972656c.965332 0 1.7504883-.7851563 1.7504883-1.7504883v-1.5327147c0-1.5170898-1.2338867-2.7509766-2.7509766-2.7509766h-12.4541015c-1.5170898 0-2.7509766 1.2338867-2.7509766 2.7509766v1.5327148c0 .965332.7851563 1.7504883 1.7504883 1.7504883h1.1972656v3.7841787h-1.1972656c-.965332 0-1.7504883.7851563-1.7504883 1.7504883v1.5322266c0 1.5170898 1.2338867 2.7509766 2.7509766 2.7509766h1.1669922v11.8967915c-3.0512466.1380997-5.3422375.2686615-8.3310547.418457v-2.9581299c.9398193-.0838623 2.5256348-.394043 3.6503906-1.5153198 1.1831055-1.1791992 1.4741211-2.8789082 1.5419922-3.786623.0273438-.3647461-.1040039-.722168-.3603516-.9799805-.2563477-.2573242-.6074219-.3857422-.9794922-.3647461-.9086914.0649414-2.6098633.3505859-3.7919922 1.5288086-.3398438.3386841-.6027832.7211304-.8112793 1.1149902-.2084961-.3938599-.4714355-.7763062-.8112793-1.1149902-1.1821289-1.1782227-2.8833008-1.4638672-3.7924805-1.5288086-.7348795-.0664463-1.3981481.561039-1.3393555 1.3442383.0678711.9082031.3583984 2.6084003 1.5415039 3.7871113 1.1257324 1.1219482 2.7126465 1.4317627 3.6523438 1.5154419v3.0307007c-2.6235352.1228027-4.9267578.2023926-6.7661133.1784668-.5029297-.0170898-.9101563.1699219-1.2436523.4990234-.3364257.3315429-.5219726.7753905-.5219726 1.2499999v3.1005859c0 .965332.7851563 1.7504883 1.7504883 1.7504883h44.4990234c.9653321 0 1.7504883-.7851562 1.7504883-1.7504882v-3.2397461c0-.8867188-.6606445-1.6367188-1.5366211-1.7441407zm-7.0288086-7.130373c.7329102-.7304688 1.8193359-.9824219 2.5488281-1.0678711-.0874023.7299805-.3427734 1.8149414-1.0756836 2.5454121-.7329102.7299805-1.8217773.9814453-2.5483398 1.0664063.0878906-.7260743.3427734-1.8139668 1.0751953-2.5439473zm-5.2128906 1.477541c-.7329102-.7304707-.987793-1.8149433-1.0756836-2.5449238.7299805.0854492 1.815918.3369141 2.5488281 1.0673828.7319336.7294922.9868164 1.8159199 1.074707 2.5424824-.727539-.086914-1.8193359-.3393555-2.5478515-1.0649414zm-23.0708008-1.477541c.7329102-.7304688 1.8193359-.9824219 2.5488281-1.0678711-.0874023.7294922-.3427734 1.8144531-1.0761719 2.5454121-.7329102.7299805-1.8212891.9814453-2.5478516 1.0664063.0878907-.7260743.3427735-1.8139668 1.0751954-2.5439473zm-5.2128906 1.477541c-.7329102-.7304707-.987793-1.8149433-1.0756836-2.5449238.7299805.0854492 1.815918.3369141 2.5488281 1.0673828.7324219.7299805.9873047 1.817873 1.0751953 2.5439472-.7265625-.0849609-1.8154297-.3364257-2.5483398-1.0664062zm10.0068359-18.3476572v-1.5327148c0-.6899414.5610352-1.2509766 1.2509766-1.2509766h12.4541016c.6899414 0 1.2509766.5610352 1.2509766 1.2509766v1.5327148c0 .1381836-.1123047.2504883-.2504883.2504883-4.8157234 0-9.6296978 0-14.4550781 0-.1381837 0-.2504884-.1123047-.2504884-.2504883zm2.9477539 1.7504883h9.0605469v3.7841787h-9.0605469zm-2.9477539 7.0668936v-1.5322266c0-.1381836.1123047-.2504883.2504883-.2504883h14.4550781c.1381836 0 .2504883.1123047.2504883.2504883v1.5322266c0 .6899414-.5610352 1.2509766-1.2509766 1.2509766-2.3708725 0-7.6616001 0-12.4541016 0-.6899413-.0000001-1.2509765-.5610352-1.2509765-1.2509766zm3.9179688 2.7509765h7.1201172v11.6173725c-2.4477539.0415039-4.8349609.1194458-7.1201172.2145996zm26.637207 17.4160176c0 .1381836-.1123047.2504883-.2504883.2504883h-44.4990234c-.1381836-.0000001-.2504883-.1123047-.2504883-.2504883v-3.1005859c0-.09375.046875-.1542969.074707-.1816406.03125-.0307617.0854492-.0673828.1645508-.0673828h.0039063c8.9965496.1228294 28.0147972-2.1714363 44.5375977-.1450195.125.0151367.2192383.125.2192383.2548828v3.239746z"></path></g></g></g></svg>